<mxfile host="app.diagrams.net" agent="Mozilla/5.0 (Windows NT 10.0; Win64; x64) AppleWebKit/537.36 (KHTML, like Gecko) Chrome/127.0.0.0 Safari/537.36" version="24.7.6">
  <diagram name="Page-1" id="ad52d381-51e7-2e0d-a935-2d0ddd2fd229">
    <mxGraphModel grid="1" page="1" gridSize="10" guides="1" tooltips="1" connect="1" arrows="1" fold="1" pageScale="1" pageWidth="1100" pageHeight="850" background="none" math="0" shadow="0">
      <root>
        <mxCell id="0" />
        <mxCell id="1" parent="0" />
        <mxCell id="8Vjlr2P9Lm8G5UuC6EMJ-3" style="edgeStyle=orthogonalEdgeStyle;rounded=0;orthogonalLoop=1;jettySize=auto;html=1;" edge="1" parent="1" source="8Vjlr2P9Lm8G5UuC6EMJ-1">
          <mxGeometry relative="1" as="geometry">
            <mxPoint x="160" y="120" as="targetPoint" />
            <Array as="points">
              <mxPoint x="70" y="120" />
            </Array>
          </mxGeometry>
        </mxCell>
        <mxCell id="8Vjlr2P9Lm8G5UuC6EMJ-4" style="edgeStyle=orthogonalEdgeStyle;rounded=0;orthogonalLoop=1;jettySize=auto;html=1;exitX=0.5;exitY=1;exitDx=0;exitDy=0;entryX=0;entryY=0.5;entryDx=0;entryDy=0;" edge="1" parent="1" source="8Vjlr2P9Lm8G5UuC6EMJ-1" target="8Vjlr2P9Lm8G5UuC6EMJ-6">
          <mxGeometry relative="1" as="geometry">
            <mxPoint x="200" y="720" as="targetPoint" />
            <Array as="points">
              <mxPoint x="70" y="720" />
            </Array>
          </mxGeometry>
        </mxCell>
        <mxCell id="8Vjlr2P9Lm8G5UuC6EMJ-1" value="&lt;span style=&quot;color: rgba(0, 0, 0, 0.83); font-family: &amp;quot;Suisse Intl&amp;quot;, sans-serif; font-size: 18px; text-align: start; white-space-collapse: break-spaces; background-color: rgb(255, 255, 255);&quot;&gt;Biblioteca Online - formulário de registro do usuário&lt;/span&gt;" style="rounded=1;whiteSpace=wrap;html=1;" vertex="1" parent="1">
          <mxGeometry x="10" y="358" width="120" height="135" as="geometry" />
        </mxCell>
        <mxCell id="8Vjlr2P9Lm8G5UuC6EMJ-14" style="edgeStyle=orthogonalEdgeStyle;rounded=0;orthogonalLoop=1;jettySize=auto;html=1;entryX=0;entryY=0.5;entryDx=0;entryDy=0;" edge="1" parent="1" source="8Vjlr2P9Lm8G5UuC6EMJ-5" target="8Vjlr2P9Lm8G5UuC6EMJ-7">
          <mxGeometry relative="1" as="geometry">
            <mxPoint x="330" y="70" as="targetPoint" />
          </mxGeometry>
        </mxCell>
        <mxCell id="8Vjlr2P9Lm8G5UuC6EMJ-15" style="edgeStyle=orthogonalEdgeStyle;rounded=0;orthogonalLoop=1;jettySize=auto;html=1;exitX=1;exitY=0.5;exitDx=0;exitDy=0;entryX=0;entryY=0.5;entryDx=0;entryDy=0;" edge="1" parent="1" source="8Vjlr2P9Lm8G5UuC6EMJ-5" target="8Vjlr2P9Lm8G5UuC6EMJ-8">
          <mxGeometry relative="1" as="geometry" />
        </mxCell>
        <mxCell id="8Vjlr2P9Lm8G5UuC6EMJ-16" style="edgeStyle=orthogonalEdgeStyle;rounded=0;orthogonalLoop=1;jettySize=auto;html=1;entryX=0;entryY=0.5;entryDx=0;entryDy=0;" edge="1" parent="1" source="8Vjlr2P9Lm8G5UuC6EMJ-5" target="8Vjlr2P9Lm8G5UuC6EMJ-9">
          <mxGeometry relative="1" as="geometry" />
        </mxCell>
        <mxCell id="8Vjlr2P9Lm8G5UuC6EMJ-17" style="edgeStyle=orthogonalEdgeStyle;rounded=0;orthogonalLoop=1;jettySize=auto;html=1;exitX=1;exitY=0.5;exitDx=0;exitDy=0;entryX=0;entryY=0.5;entryDx=0;entryDy=0;" edge="1" parent="1" source="8Vjlr2P9Lm8G5UuC6EMJ-5" target="8Vjlr2P9Lm8G5UuC6EMJ-10">
          <mxGeometry relative="1" as="geometry" />
        </mxCell>
        <mxCell id="8Vjlr2P9Lm8G5UuC6EMJ-18" style="edgeStyle=orthogonalEdgeStyle;rounded=0;orthogonalLoop=1;jettySize=auto;html=1;exitX=1;exitY=0.5;exitDx=0;exitDy=0;entryX=0;entryY=0.75;entryDx=0;entryDy=0;" edge="1" parent="1" source="8Vjlr2P9Lm8G5UuC6EMJ-5" target="8Vjlr2P9Lm8G5UuC6EMJ-11">
          <mxGeometry relative="1" as="geometry" />
        </mxCell>
        <mxCell id="8Vjlr2P9Lm8G5UuC6EMJ-19" style="edgeStyle=orthogonalEdgeStyle;rounded=0;orthogonalLoop=1;jettySize=auto;html=1;exitX=1;exitY=0.5;exitDx=0;exitDy=0;entryX=0;entryY=0.5;entryDx=0;entryDy=0;" edge="1" parent="1" source="8Vjlr2P9Lm8G5UuC6EMJ-5" target="8Vjlr2P9Lm8G5UuC6EMJ-12">
          <mxGeometry relative="1" as="geometry" />
        </mxCell>
        <mxCell id="8Vjlr2P9Lm8G5UuC6EMJ-20" style="edgeStyle=orthogonalEdgeStyle;rounded=0;orthogonalLoop=1;jettySize=auto;html=1;exitX=1;exitY=0.5;exitDx=0;exitDy=0;entryX=0;entryY=0.5;entryDx=0;entryDy=0;" edge="1" parent="1" source="8Vjlr2P9Lm8G5UuC6EMJ-5" target="8Vjlr2P9Lm8G5UuC6EMJ-13">
          <mxGeometry relative="1" as="geometry" />
        </mxCell>
        <mxCell id="8Vjlr2P9Lm8G5UuC6EMJ-5" value="INTERFACE" style="ellipse;whiteSpace=wrap;html=1;" vertex="1" parent="1">
          <mxGeometry x="160" y="80" width="120" height="80" as="geometry" />
        </mxCell>
        <mxCell id="8Vjlr2P9Lm8G5UuC6EMJ-63" style="edgeStyle=orthogonalEdgeStyle;rounded=0;orthogonalLoop=1;jettySize=auto;html=1;entryX=0;entryY=0.5;entryDx=0;entryDy=0;" edge="1" parent="1" source="8Vjlr2P9Lm8G5UuC6EMJ-6" target="8Vjlr2P9Lm8G5UuC6EMJ-21">
          <mxGeometry relative="1" as="geometry" />
        </mxCell>
        <mxCell id="8Vjlr2P9Lm8G5UuC6EMJ-64" style="edgeStyle=orthogonalEdgeStyle;rounded=0;orthogonalLoop=1;jettySize=auto;html=1;entryX=0;entryY=0.5;entryDx=0;entryDy=0;" edge="1" parent="1" source="8Vjlr2P9Lm8G5UuC6EMJ-6" target="8Vjlr2P9Lm8G5UuC6EMJ-22">
          <mxGeometry relative="1" as="geometry" />
        </mxCell>
        <mxCell id="8Vjlr2P9Lm8G5UuC6EMJ-6" value="FUNCIONALIDADES" style="ellipse;whiteSpace=wrap;html=1;" vertex="1" parent="1">
          <mxGeometry x="160" y="680" width="120" height="80" as="geometry" />
        </mxCell>
        <mxCell id="8Vjlr2P9Lm8G5UuC6EMJ-7" value="CAMPO &quot;NOME&quot;" style="rounded=0;whiteSpace=wrap;html=1;" vertex="1" parent="1">
          <mxGeometry x="340" y="20" width="110" height="30" as="geometry" />
        </mxCell>
        <mxCell id="8Vjlr2P9Lm8G5UuC6EMJ-8" value="CAMPO &quot;E-MAIL&quot;" style="rounded=0;whiteSpace=wrap;html=1;" vertex="1" parent="1">
          <mxGeometry x="340" y="70" width="110" height="30" as="geometry" />
        </mxCell>
        <mxCell id="8Vjlr2P9Lm8G5UuC6EMJ-9" value="CAMPO &quot;SENHA&quot;" style="rounded=0;whiteSpace=wrap;html=1;" vertex="1" parent="1">
          <mxGeometry x="340" y="120" width="110" height="30" as="geometry" />
        </mxCell>
        <mxCell id="8Vjlr2P9Lm8G5UuC6EMJ-10" value="CAMPO &quot;CONFIRME A SENHA&quot;" style="rounded=0;whiteSpace=wrap;html=1;" vertex="1" parent="1">
          <mxGeometry x="340" y="170" width="120" height="30" as="geometry" />
        </mxCell>
        <mxCell id="8Vjlr2P9Lm8G5UuC6EMJ-11" value="CAMPO &quot;NOME&quot;" style="rounded=0;whiteSpace=wrap;html=1;" vertex="1" parent="1">
          <mxGeometry x="340" y="220" width="110" height="30" as="geometry" />
        </mxCell>
        <mxCell id="8Vjlr2P9Lm8G5UuC6EMJ-12" value="CAMPO &quot;DATA DE NASCIMENTO&quot;" style="rounded=0;whiteSpace=wrap;html=1;" vertex="1" parent="1">
          <mxGeometry x="340" y="270" width="110" height="30" as="geometry" />
        </mxCell>
        <mxCell id="8Vjlr2P9Lm8G5UuC6EMJ-13" value="BOTÃO &quot;ENVIAR&quot;" style="rounded=0;whiteSpace=wrap;html=1;" vertex="1" parent="1">
          <mxGeometry x="340" y="320" width="110" height="30" as="geometry" />
        </mxCell>
        <mxCell id="8Vjlr2P9Lm8G5UuC6EMJ-69" style="edgeStyle=orthogonalEdgeStyle;rounded=0;orthogonalLoop=1;jettySize=auto;html=1;entryX=0;entryY=0.5;entryDx=0;entryDy=0;" edge="1" parent="1" source="8Vjlr2P9Lm8G5UuC6EMJ-21" target="8Vjlr2P9Lm8G5UuC6EMJ-26">
          <mxGeometry relative="1" as="geometry" />
        </mxCell>
        <mxCell id="8Vjlr2P9Lm8G5UuC6EMJ-70" style="edgeStyle=orthogonalEdgeStyle;rounded=0;orthogonalLoop=1;jettySize=auto;html=1;entryX=0;entryY=0.5;entryDx=0;entryDy=0;" edge="1" parent="1" source="8Vjlr2P9Lm8G5UuC6EMJ-21" target="8Vjlr2P9Lm8G5UuC6EMJ-27">
          <mxGeometry relative="1" as="geometry" />
        </mxCell>
        <mxCell id="8Vjlr2P9Lm8G5UuC6EMJ-71" style="edgeStyle=orthogonalEdgeStyle;rounded=0;orthogonalLoop=1;jettySize=auto;html=1;entryX=0;entryY=0.5;entryDx=0;entryDy=0;" edge="1" parent="1" source="8Vjlr2P9Lm8G5UuC6EMJ-21" target="8Vjlr2P9Lm8G5UuC6EMJ-28">
          <mxGeometry relative="1" as="geometry" />
        </mxCell>
        <mxCell id="8Vjlr2P9Lm8G5UuC6EMJ-72" style="edgeStyle=orthogonalEdgeStyle;rounded=0;orthogonalLoop=1;jettySize=auto;html=1;entryX=0;entryY=0.5;entryDx=0;entryDy=0;" edge="1" parent="1" source="8Vjlr2P9Lm8G5UuC6EMJ-21" target="8Vjlr2P9Lm8G5UuC6EMJ-25">
          <mxGeometry relative="1" as="geometry" />
        </mxCell>
        <mxCell id="8Vjlr2P9Lm8G5UuC6EMJ-73" style="edgeStyle=orthogonalEdgeStyle;rounded=0;orthogonalLoop=1;jettySize=auto;html=1;entryX=0;entryY=0.5;entryDx=0;entryDy=0;" edge="1" parent="1" source="8Vjlr2P9Lm8G5UuC6EMJ-21" target="8Vjlr2P9Lm8G5UuC6EMJ-24">
          <mxGeometry relative="1" as="geometry" />
        </mxCell>
        <mxCell id="8Vjlr2P9Lm8G5UuC6EMJ-74" style="edgeStyle=orthogonalEdgeStyle;rounded=0;orthogonalLoop=1;jettySize=auto;html=1;entryX=0;entryY=0.5;entryDx=0;entryDy=0;" edge="1" parent="1" source="8Vjlr2P9Lm8G5UuC6EMJ-21" target="8Vjlr2P9Lm8G5UuC6EMJ-23">
          <mxGeometry relative="1" as="geometry" />
        </mxCell>
        <mxCell id="8Vjlr2P9Lm8G5UuC6EMJ-21" value="VERIFICANDO SE AS ENTRADAS DE DADOS NOS CAMPOS ESTÃO CORRETAS" style="rounded=0;whiteSpace=wrap;html=1;" vertex="1" parent="1">
          <mxGeometry x="320" y="560" width="120" height="80" as="geometry" />
        </mxCell>
        <mxCell id="8Vjlr2P9Lm8G5UuC6EMJ-61" style="edgeStyle=orthogonalEdgeStyle;rounded=0;orthogonalLoop=1;jettySize=auto;html=1;" edge="1" parent="1" source="8Vjlr2P9Lm8G5UuC6EMJ-22" target="8Vjlr2P9Lm8G5UuC6EMJ-57">
          <mxGeometry relative="1" as="geometry" />
        </mxCell>
        <mxCell id="8Vjlr2P9Lm8G5UuC6EMJ-62" style="edgeStyle=orthogonalEdgeStyle;rounded=0;orthogonalLoop=1;jettySize=auto;html=1;entryX=0;entryY=0.5;entryDx=0;entryDy=0;" edge="1" parent="1" source="8Vjlr2P9Lm8G5UuC6EMJ-22" target="8Vjlr2P9Lm8G5UuC6EMJ-58">
          <mxGeometry relative="1" as="geometry" />
        </mxCell>
        <mxCell id="8Vjlr2P9Lm8G5UuC6EMJ-22" value="BOTÃO &quot;ENVIAR&quot;" style="rounded=0;whiteSpace=wrap;html=1;textShadow=1;" vertex="1" parent="1">
          <mxGeometry x="320" y="755" width="120" height="30" as="geometry" />
        </mxCell>
        <mxCell id="8Vjlr2P9Lm8G5UuC6EMJ-41" style="edgeStyle=orthogonalEdgeStyle;rounded=0;orthogonalLoop=1;jettySize=auto;html=1;entryX=0;entryY=0.5;entryDx=0;entryDy=0;exitX=1;exitY=0.333;exitDx=0;exitDy=0;exitPerimeter=0;" edge="1" parent="1" source="8Vjlr2P9Lm8G5UuC6EMJ-23" target="8Vjlr2P9Lm8G5UuC6EMJ-31">
          <mxGeometry relative="1" as="geometry">
            <Array as="points">
              <mxPoint x="590" y="405" />
              <mxPoint x="610" y="405" />
              <mxPoint x="610" y="355" />
            </Array>
          </mxGeometry>
        </mxCell>
        <mxCell id="8Vjlr2P9Lm8G5UuC6EMJ-52" style="edgeStyle=orthogonalEdgeStyle;rounded=0;orthogonalLoop=1;jettySize=auto;html=1;entryX=0;entryY=0.5;entryDx=0;entryDy=0;" edge="1" parent="1" source="8Vjlr2P9Lm8G5UuC6EMJ-23" target="8Vjlr2P9Lm8G5UuC6EMJ-30">
          <mxGeometry relative="1" as="geometry" />
        </mxCell>
        <mxCell id="8Vjlr2P9Lm8G5UuC6EMJ-23" value="CAMPO &quot;NOME&quot;" style="rounded=0;whiteSpace=wrap;html=1;" vertex="1" parent="1">
          <mxGeometry x="480" y="390" width="110" height="30" as="geometry" />
        </mxCell>
        <mxCell id="8Vjlr2P9Lm8G5UuC6EMJ-42" style="edgeStyle=orthogonalEdgeStyle;rounded=0;orthogonalLoop=1;jettySize=auto;html=1;exitX=1;exitY=0.5;exitDx=0;exitDy=0;entryX=0;entryY=0.5;entryDx=0;entryDy=0;" edge="1" parent="1" source="8Vjlr2P9Lm8G5UuC6EMJ-24" target="8Vjlr2P9Lm8G5UuC6EMJ-32">
          <mxGeometry relative="1" as="geometry" />
        </mxCell>
        <mxCell id="8Vjlr2P9Lm8G5UuC6EMJ-43" style="edgeStyle=orthogonalEdgeStyle;rounded=0;orthogonalLoop=1;jettySize=auto;html=1;exitX=1;exitY=0.5;exitDx=0;exitDy=0;entryX=0;entryY=0.5;entryDx=0;entryDy=0;" edge="1" parent="1" source="8Vjlr2P9Lm8G5UuC6EMJ-24" target="8Vjlr2P9Lm8G5UuC6EMJ-33">
          <mxGeometry relative="1" as="geometry" />
        </mxCell>
        <mxCell id="8Vjlr2P9Lm8G5UuC6EMJ-24" value="CAMPO &quot;E-MAIL&quot;" style="rounded=0;whiteSpace=wrap;html=1;" vertex="1" parent="1">
          <mxGeometry x="480" y="451" width="110" height="30" as="geometry" />
        </mxCell>
        <mxCell id="8Vjlr2P9Lm8G5UuC6EMJ-44" style="edgeStyle=orthogonalEdgeStyle;rounded=0;orthogonalLoop=1;jettySize=auto;html=1;entryX=0;entryY=0.5;entryDx=0;entryDy=0;" edge="1" parent="1" source="8Vjlr2P9Lm8G5UuC6EMJ-25" target="8Vjlr2P9Lm8G5UuC6EMJ-34">
          <mxGeometry relative="1" as="geometry" />
        </mxCell>
        <mxCell id="8Vjlr2P9Lm8G5UuC6EMJ-45" style="edgeStyle=orthogonalEdgeStyle;rounded=0;orthogonalLoop=1;jettySize=auto;html=1;exitX=1;exitY=0.5;exitDx=0;exitDy=0;" edge="1" parent="1" source="8Vjlr2P9Lm8G5UuC6EMJ-25" target="8Vjlr2P9Lm8G5UuC6EMJ-35">
          <mxGeometry relative="1" as="geometry" />
        </mxCell>
        <mxCell id="8Vjlr2P9Lm8G5UuC6EMJ-25" value="CAMPO &quot;SENHA&quot;" style="rounded=0;whiteSpace=wrap;html=1;" vertex="1" parent="1">
          <mxGeometry x="480" y="510" width="110" height="30" as="geometry" />
        </mxCell>
        <mxCell id="8Vjlr2P9Lm8G5UuC6EMJ-46" style="edgeStyle=orthogonalEdgeStyle;rounded=0;orthogonalLoop=1;jettySize=auto;html=1;entryX=0;entryY=0.5;entryDx=0;entryDy=0;" edge="1" parent="1" source="8Vjlr2P9Lm8G5UuC6EMJ-26" target="8Vjlr2P9Lm8G5UuC6EMJ-36">
          <mxGeometry relative="1" as="geometry" />
        </mxCell>
        <mxCell id="8Vjlr2P9Lm8G5UuC6EMJ-47" style="edgeStyle=orthogonalEdgeStyle;rounded=0;orthogonalLoop=1;jettySize=auto;html=1;entryX=0;entryY=0.5;entryDx=0;entryDy=0;" edge="1" parent="1" source="8Vjlr2P9Lm8G5UuC6EMJ-26" target="8Vjlr2P9Lm8G5UuC6EMJ-37">
          <mxGeometry relative="1" as="geometry" />
        </mxCell>
        <mxCell id="8Vjlr2P9Lm8G5UuC6EMJ-26" value="CAMPO &quot;CONFIRME A SENHA&quot;" style="rounded=0;whiteSpace=wrap;html=1;" vertex="1" parent="1">
          <mxGeometry x="480" y="580" width="120" height="30" as="geometry" />
        </mxCell>
        <mxCell id="8Vjlr2P9Lm8G5UuC6EMJ-48" style="edgeStyle=orthogonalEdgeStyle;rounded=0;orthogonalLoop=1;jettySize=auto;html=1;entryX=0;entryY=0.5;entryDx=0;entryDy=0;" edge="1" parent="1" source="8Vjlr2P9Lm8G5UuC6EMJ-27" target="8Vjlr2P9Lm8G5UuC6EMJ-38">
          <mxGeometry relative="1" as="geometry" />
        </mxCell>
        <mxCell id="8Vjlr2P9Lm8G5UuC6EMJ-49" style="edgeStyle=orthogonalEdgeStyle;rounded=0;orthogonalLoop=1;jettySize=auto;html=1;entryX=0;entryY=0.5;entryDx=0;entryDy=0;" edge="1" parent="1" source="8Vjlr2P9Lm8G5UuC6EMJ-27" target="8Vjlr2P9Lm8G5UuC6EMJ-39">
          <mxGeometry relative="1" as="geometry" />
        </mxCell>
        <mxCell id="8Vjlr2P9Lm8G5UuC6EMJ-27" value="CAMPO &quot;NOME&quot;" style="rounded=0;whiteSpace=wrap;html=1;" vertex="1" parent="1">
          <mxGeometry x="480" y="630" width="110" height="30" as="geometry" />
        </mxCell>
        <mxCell id="8Vjlr2P9Lm8G5UuC6EMJ-55" style="edgeStyle=orthogonalEdgeStyle;rounded=0;orthogonalLoop=1;jettySize=auto;html=1;entryX=0;entryY=0.5;entryDx=0;entryDy=0;" edge="1" parent="1" source="8Vjlr2P9Lm8G5UuC6EMJ-28" target="8Vjlr2P9Lm8G5UuC6EMJ-53">
          <mxGeometry relative="1" as="geometry" />
        </mxCell>
        <mxCell id="8Vjlr2P9Lm8G5UuC6EMJ-56" style="edgeStyle=orthogonalEdgeStyle;rounded=0;orthogonalLoop=1;jettySize=auto;html=1;entryX=0;entryY=0.5;entryDx=0;entryDy=0;" edge="1" parent="1" source="8Vjlr2P9Lm8G5UuC6EMJ-28" target="8Vjlr2P9Lm8G5UuC6EMJ-54">
          <mxGeometry relative="1" as="geometry" />
        </mxCell>
        <mxCell id="8Vjlr2P9Lm8G5UuC6EMJ-28" value="CAMPO &quot;DATA DE NASCIMENTO&quot;" style="rounded=0;whiteSpace=wrap;html=1;" vertex="1" parent="1">
          <mxGeometry x="480" y="688" width="110" height="30" as="geometry" />
        </mxCell>
        <mxCell id="8Vjlr2P9Lm8G5UuC6EMJ-30" value="ENTRADA VALIDA" style="rounded=0;whiteSpace=wrap;html=1;" vertex="1" parent="1">
          <mxGeometry x="630" y="310" width="110" height="30" as="geometry" />
        </mxCell>
        <mxCell id="8Vjlr2P9Lm8G5UuC6EMJ-31" value="ENTRADA INVALIDA" style="rounded=0;whiteSpace=wrap;html=1;" vertex="1" parent="1">
          <mxGeometry x="630" y="340" width="120" height="30" as="geometry" />
        </mxCell>
        <mxCell id="8Vjlr2P9Lm8G5UuC6EMJ-32" value="ENTRADA VALIDA" style="rounded=0;whiteSpace=wrap;html=1;" vertex="1" parent="1">
          <mxGeometry x="640" y="395" width="110" height="30" as="geometry" />
        </mxCell>
        <mxCell id="8Vjlr2P9Lm8G5UuC6EMJ-33" value="ENTRADA INVALIDA" style="rounded=0;whiteSpace=wrap;html=1;" vertex="1" parent="1">
          <mxGeometry x="640" y="425" width="120" height="30" as="geometry" />
        </mxCell>
        <mxCell id="8Vjlr2P9Lm8G5UuC6EMJ-34" value="ENTRADA VALIDA" style="rounded=0;whiteSpace=wrap;html=1;" vertex="1" parent="1">
          <mxGeometry x="640" y="470" width="110" height="30" as="geometry" />
        </mxCell>
        <mxCell id="8Vjlr2P9Lm8G5UuC6EMJ-35" value="ENTRADA INVALIDA" style="rounded=0;whiteSpace=wrap;html=1;" vertex="1" parent="1">
          <mxGeometry x="640" y="500" width="120" height="30" as="geometry" />
        </mxCell>
        <mxCell id="8Vjlr2P9Lm8G5UuC6EMJ-36" value="ENTRADA VALIDA" style="rounded=0;whiteSpace=wrap;html=1;" vertex="1" parent="1">
          <mxGeometry x="640" y="550" width="110" height="20" as="geometry" />
        </mxCell>
        <mxCell id="8Vjlr2P9Lm8G5UuC6EMJ-37" value="ENTRADA INVALIDA" style="rounded=0;whiteSpace=wrap;html=1;" vertex="1" parent="1">
          <mxGeometry x="640" y="570" width="120" height="20" as="geometry" />
        </mxCell>
        <mxCell id="8Vjlr2P9Lm8G5UuC6EMJ-38" value="ENTRADA VALIDA" style="rounded=0;whiteSpace=wrap;html=1;" vertex="1" parent="1">
          <mxGeometry x="640" y="610" width="110" height="20" as="geometry" />
        </mxCell>
        <mxCell id="8Vjlr2P9Lm8G5UuC6EMJ-39" value="ENTRADA INVALIDA" style="rounded=0;whiteSpace=wrap;html=1;" vertex="1" parent="1">
          <mxGeometry x="640" y="630" width="120" height="20" as="geometry" />
        </mxCell>
        <mxCell id="8Vjlr2P9Lm8G5UuC6EMJ-53" value="ENTRADA VALIDA" style="rounded=0;whiteSpace=wrap;html=1;" vertex="1" parent="1">
          <mxGeometry x="640" y="670" width="110" height="20" as="geometry" />
        </mxCell>
        <mxCell id="8Vjlr2P9Lm8G5UuC6EMJ-54" value="ENTRADA INVALIDA" style="rounded=0;whiteSpace=wrap;html=1;" vertex="1" parent="1">
          <mxGeometry x="640" y="690" width="120" height="20" as="geometry" />
        </mxCell>
        <mxCell id="8Vjlr2P9Lm8G5UuC6EMJ-67" style="edgeStyle=orthogonalEdgeStyle;rounded=0;orthogonalLoop=1;jettySize=auto;html=1;" edge="1" parent="1" source="8Vjlr2P9Lm8G5UuC6EMJ-57" target="8Vjlr2P9Lm8G5UuC6EMJ-66">
          <mxGeometry relative="1" as="geometry" />
        </mxCell>
        <mxCell id="8Vjlr2P9Lm8G5UuC6EMJ-57" value="ENTRADAS INVALIDAS" style="rounded=0;whiteSpace=wrap;html=1;" vertex="1" parent="1">
          <mxGeometry x="480" y="760" width="150" height="20" as="geometry" />
        </mxCell>
        <mxCell id="8Vjlr2P9Lm8G5UuC6EMJ-68" style="edgeStyle=orthogonalEdgeStyle;rounded=0;orthogonalLoop=1;jettySize=auto;html=1;" edge="1" parent="1" source="8Vjlr2P9Lm8G5UuC6EMJ-58" target="8Vjlr2P9Lm8G5UuC6EMJ-65">
          <mxGeometry relative="1" as="geometry" />
        </mxCell>
        <mxCell id="8Vjlr2P9Lm8G5UuC6EMJ-58" value="ENTRADAS VALIDAS" style="rounded=0;whiteSpace=wrap;html=1;" vertex="1" parent="1">
          <mxGeometry x="480" y="810" width="140" height="20" as="geometry" />
        </mxCell>
        <mxCell id="8Vjlr2P9Lm8G5UuC6EMJ-65" value="CONTA DO USÚARIO CRIADA" style="rounded=0;whiteSpace=wrap;html=1;" vertex="1" parent="1">
          <mxGeometry x="680" y="810" width="180" height="20" as="geometry" />
        </mxCell>
        <mxCell id="8Vjlr2P9Lm8G5UuC6EMJ-66" value="MENSAGEM DE ERRO" style="rounded=0;whiteSpace=wrap;html=1;" vertex="1" parent="1">
          <mxGeometry x="680" y="760" width="140" height="20" as="geometry" />
        </mxCell>
      </root>
    </mxGraphModel>
  </diagram>
</mxfile>
